<?xml version="1.0" encoding="UTF-8"?>
<svg version="1.1" xmlns="http://www.w3.org/2000/svg" width="500" height="500">
<path d="M0 0 C4.19234013 0.77002166 5.35466151 2.28436792 8.0625 5.5625 C9.3862472 8.50498476 10.29284098 11.52868009 11.1875 14.625 C13.18480798 21.55403932 13.18480798 21.55403932 17.0625 27.5625 C17.0625 28.2225 17.0625 28.8825 17.0625 29.5625 C17.825625 29.85125 18.58875 30.14 19.375 30.4375 C22.0625 31.5625 22.0625 31.5625 25.0625 33.5625 C30.95421645 33.97062956 36.20695254 32.70177972 41.0546875 29.35546875 C44.44208146 26.33053913 47.14831512 22.79308007 49.88671875 19.18359375 C55.12008966 12.87912 55.12008966 12.87912 59.1953125 12.21484375 C60.18144531 12.35599609 60.18144531 12.35599609 61.1875 12.5 C61.85007812 12.57089844 62.51265625 12.64179687 63.1953125 12.71484375 C66.18824033 14.07355785 66.79755011 15.53124813 68.0625 18.5625 C68.4387107 21.95699753 68.42404605 25.33748051 68.4375 28.75 C68.72197055 39.94243152 68.72197055 39.94243152 74.0625 49.5625 C78.34985841 52.73141708 81.81961665 53.15443844 87.0625 52.5625 C95.06283092 50.76327423 100.69493536 47.84105214 106.7109375 42.26953125 C109.55150875 40.20752188 111.58155567 39.77917583 115.0625 39.5625 C119.62771739 41.69293478 119.62771739 41.69293478 121.0625 44.5625 C121.61589626 49.50049739 121.13715834 53.79830787 119.5625 58.5 C117.1953019 65.77067988 117.02691339 72.77117195 120.08203125 79.87109375 C122.10034307 83.35288267 124.65769351 85.1188769 128.4375 86.3125 C136.5537902 87.08548002 143.27891627 85.72650216 150.6875 82.375 C155.01292347 80.89524987 159.2331398 80.87648992 163.5625 82.5 C165.63489739 85.34954641 165.79136683 87.46358111 165.66015625 90.94921875 C164.67728754 95.24686037 162.29450055 98.50946218 159.7890625 102.08203125 C155.20984273 108.66077458 155.32694358 114.64607398 156.0625 122.5625 C157.25261975 126.27486217 159.38240138 128.05678565 162.5 130.375 C171.31678089 133.31392696 180.90262567 132.65025649 190.06640625 132.109375 C193.0625 132.5625 193.0625 132.5625 195.4609375 134.86328125 C197.0625 137.5625 197.0625 137.5625 197.125 141 C195.41572031 146.73111427 192.11644099 149.76281238 187.5625 153.3125 C182.75793311 157.32857123 179.94945724 162.6108531 178.58203125 168.703125 C178.23372656 173.4852543 179.79389049 177.02459704 182.484375 180.81640625 C187.59793378 186.47422995 195.96915367 187.83773361 203.07128906 189.7253418 C210.27206918 191.69295903 210.27206918 191.69295903 213.0625 194.5625 C213.6475258 198.51142418 213.62440651 200.67989563 211.4609375 204.078125 C208.60322895 207.03822702 205.94300631 208.28184668 202.1875 209.9375 C195.29822493 213.15143023 191.51256181 216.5145718 187.625 222.9375 C186.57682933 227.82896314 186.87146571 232.25873471 189.19140625 236.74609375 C192.67780073 241.77144165 196.72613267 244.71063702 202.0625 247.5625 C203.6677609 248.43549091 205.27192858 249.31049502 206.875 250.1875 C207.60332031 250.57164062 208.33164062 250.95578125 209.08203125 251.3515625 C211.10205791 252.58668728 212.55716676 253.73658654 214.0625 255.5625 C214.5 258.5 214.5 258.5 214.0625 261.5625 C210.43928645 266.3934514 206.00335664 267.41561243 200.3125 268.4375 C195.80096512 269.27497055 191.98638769 270.74616924 187.875 272.7578125 C186.0625 273.5625 186.0625 273.5625 184.0625 273.5625 C183.37475595 274.88508472 182.71538627 276.22236503 182.0625 277.5625 C181.485 278.59375 180.9075 279.625 180.3125 280.6875 C178.29733019 285.44411909 179.42907631 289.81853741 181.0625 294.5625 C182.24788461 296.7409238 183.56814751 298.57003002 185.0625 300.5625 C185.0625 301.2225 185.0625 301.8825 185.0625 302.5625 C185.7225 302.5625 186.3825 302.5625 187.0625 302.5625 C188.82847102 304.18130677 190.43547358 305.81234726 192.0625 307.5625 C192.62195313 308.11679687 193.18140625 308.67109375 193.7578125 309.2421875 C198.04617668 313.73001047 198.04617668 313.73001047 198.125 317.75 C197.05386542 320.58535623 196.12164781 322.35344693 194.0625 324.5625 C191.95288086 324.96899414 191.95288086 324.96899414 189.52734375 324.84765625 C188.63466797 324.82123047 187.74199219 324.79480469 186.82226562 324.76757812 C185.89091797 324.72052734 184.95957031 324.67347656 184 324.625 C175.29097212 324.20910202 167.0832818 324.36228591 160 330 C156.44884551 334.6966882 156.57339612 339.85936424 157.0625 345.5625 C158.41120924 352.41740749 161.93121989 357.89366618 165.734375 363.66796875 C167.34037277 367.16809919 167.08491318 368.90361018 166.0625 372.5625 C165 374.4375 165 374.4375 163.0625 375.5625 C157.63065713 376.1148908 153.92382174 375.35432079 148.92578125 373.296875 C142.66943317 370.83106066 135.31806493 370.8738228 128.8125 372.25 C125.126834 374.00906786 121.87779598 376.30633501 120.44140625 380.28125 C119.04810237 388.66980121 119.39039622 397.45555947 122.40625 405.4140625 C123.17952634 407.94562194 123.30623497 409.92845193 123.0625 412.5625 C121 415.4375 121 415.4375 118.0625 417.5625 C112.29424028 417.40474736 109.18943074 415.59871199 104.6875 412.125 C96.73490633 406.30136652 90.93551033 404.98913207 81.2265625 406.17578125 C78.89126145 406.53935171 78.89126145 406.53935171 76.0625 407.5625 C74.96081016 409.26019234 74.96081016 409.26019234 74.0625 411.5625 C73.546875 412.5525 73.03125 413.5425 72.5 414.5625 C69.86346768 420.74104038 70.01829092 427.82153718 70.125 434.4375 C70.05524972 437.925014 69.53379066 440.39922507 68.0625 443.5625 C65.95510438 445.16121392 64.31863104 445.50712031 61.75 446.0625 C55.99615389 444.992017 52.38589273 440.1696031 49.1875 435.5625 C45.14642149 429.94809492 40.06369501 426.44216061 33.4375 424.5 C27.3389602 424.61293592 22.27882428 427.23521982 18.0625 431.5625 C14.19155718 437.63388947 12.26133299 443.88252982 10.8359375 450.8984375 C9.99782738 453.78526126 9.18157627 455.43361319 7.0625 457.5625 C3.93617816 458.56948007 1.21162937 458.46225125 -1.9375 457.5625 C-5.65834615 454.11209129 -7.12608123 449.14245511 -8.875 444.5 C-11.38590538 437.91899801 -15.37468292 432.51576769 -21.9375 429.5625 C-27.33240404 427.88408541 -31.0913914 429.03080974 -35.9375 431.5625 C-41.96402103 435.09665238 -44.95993209 440.57800543 -48.09765625 446.62426758 C-49.92709572 450.09557227 -51.42813859 452.67656365 -54.9375 454.5625 C-60.91675361 454.35270163 -60.91675361 454.35270163 -63.5859375 452.28637695 C-65.22158577 450.20015722 -65.55882976 448.7104612 -66 446.10546875 C-66.15726563 445.23986328 -66.31453125 444.37425781 -66.4765625 443.48242188 C-66.62867188 442.58072266 -66.78078125 441.67902344 -66.9375 440.75 C-68.43462397 431.98928726 -70.07172149 425.7240961 -76.9375 419.5625 C-81.10332359 417.47958821 -86.38944119 418.23977309 -90.9375 418.5625 C-97.26530003 420.71156416 -102.02223791 425.60269693 -106.625 430.3125 C-110.11353912 433.70675428 -110.11353912 433.70675428 -112.9375 434.5625 C-115.954012 434.37781559 -118.13285561 434.03418809 -120.75 432.5 C-123.81479195 427.49954998 -122.88258319 422.02298065 -121.9375 416.5625 C-121.47041997 409.23453338 -121.52372097 403.15462503 -124.9375 396.5625 C-128.65963983 392.93341366 -131.82841236 391.42512986 -137 391.3125 C-144.42149685 391.42058005 -150.66643479 393.79943195 -157.125 397.3125 C-160.52501069 399.08200242 -161.91252109 399.56210351 -165.875 399.625 C-168.9375 398.5625 -168.9375 398.5625 -170.9375 397.0625 C-172.53467947 393.06955132 -172.02309751 389.67226202 -170.9375 385.5625 C-170.15069739 383.91446751 -169.3148457 382.289166 -168.4375 380.6875 C-165.35549078 374.92665137 -163.98856328 368.98254734 -165.3828125 362.48828125 C-167.34029092 357.30208843 -170.68374131 353.66317285 -175.625 351.25 C-182.12277272 349.90140566 -187.8099915 350.02960905 -194.125 352.125 C-199.34800393 353.8550688 -203.28951353 353.88649324 -208.3125 351.375 C-210.62128326 348.79981867 -210.86887296 346.99385186 -210.9375 343.5625 C-209.06882108 339.92472692 -206.76457806 337.17881003 -203.9375 334.25 C-198.23629472 327.899025 -196.36926527 322.42777672 -196.64453125 313.89453125 C-197.23542903 309.19098492 -199.33460885 305.5635538 -202.9375 302.5625 C-210.08207287 299.9088015 -217.46093399 299.19377334 -225.02734375 298.96875 C-229.01991579 298.41139766 -231.85935486 296.98369132 -234.3125 293.75 C-235.22444786 290.55818248 -234.9702446 288.72528035 -233.9375 285.5625 C-231.22931654 282.85431654 -228.41409172 280.88137567 -225.234375 278.75390625 C-217.0763882 273.20012972 -217.0763882 273.20012972 -212.9375 264.5625 C-212.10002977 258.71017829 -212.878511 254.70160151 -215.9375 249.5625 C-216.2675 248.5725 -216.5975 247.5825 -216.9375 246.5625 C-219.24296198 245.42101274 -219.24296198 245.42101274 -221.9375 244.5625 C-225.27799304 243.24621301 -228.61166716 241.91546454 -231.9375 240.5625 C-233.21367187 240.04623047 -233.21367187 240.04623047 -234.515625 239.51953125 C-235.31484375 239.18308594 -236.1140625 238.84664062 -236.9375 238.5 C-237.659375 238.19964844 -238.38125 237.89929688 -239.125 237.58984375 C-240.9375 236.5625 -240.9375 236.5625 -242.9375 233.5625 C-243.375 230.6875 -243.375 230.6875 -242.9375 227.5625 C-239.17004468 222.90943861 -235.43584023 221.28036663 -229.9375 219.5 C-222.78434211 217.14420907 -217.33624595 214.61897365 -213.67578125 207.5390625 C-211.92091036 202.84083674 -212.14402023 198.82031062 -213.796875 194.1171875 C-217.47699278 186.87053582 -223.28744923 182.95506271 -229.890625 178.59375 C-232.9375 176.5625 -232.9375 176.5625 -234.9375 174.5625 C-235.34465662 170.89809039 -235.46769869 168.49665959 -233.625 165.25 C-229.38451029 162.58736693 -224.83773274 162.25437224 -219.9375 161.5625 C-212.03261062 160.33912426 -205.11675049 159.0551671 -198.9375 153.5625 C-196.95911431 147.62734292 -197.29517514 141.00333445 -198.875 135 C-201.15471917 130.50728514 -204.72937168 126.72737545 -207.9765625 122.91796875 C-211.19273434 119.05471851 -211.37085639 116.58943407 -210.9375 111.5625 C-209.5 109.125 -209.5 109.125 -206.9375 107.5625 C-201.67478658 106.74569379 -196.95415361 107.7183139 -191.89453125 109.10546875 C-185.06020755 110.70150842 -178.2661704 109.3964002 -171.9375 106.5625 C-167.81545279 102.54099053 -166.75199845 98.89323795 -166.5 93.25 C-166.50807468 86.58838833 -168.81140118 81.73014345 -171.5859375 75.7734375 C-173.36791923 71.53994333 -173.77089858 69.06285235 -172.9375 64.5625 C-171.3125 62.0625 -171.3125 62.0625 -168.9375 60.5625 C-163.74607116 59.97564283 -160.18445786 61.60135035 -155.6875 63.9375 C-145.89866167 68.91855045 -145.89866167 68.91855045 -135.2109375 68.91796875 C-130.59395971 67.24813961 -127.54749187 65.85661506 -124.9375 61.5625 C-123.424038 57.69186443 -123.78890714 53.47214476 -123.8125 49.375 C-123.8122583 48.61413086 -123.8120166 47.85326172 -123.81176758 47.06933594 C-123.83347721 43.08668345 -124.01767976 39.25674465 -124.625 35.3125 C-124.96873399 31.18769216 -124.57762908 29.69154187 -121.9375 26.5625 C-119.07141871 25.12945936 -117.12449217 25.25605845 -113.9375 25.5625 C-110.21212808 27.54408081 -107.53139807 29.94963626 -104.6875 33 C-99.63142929 38.1674379 -93.52293435 41.75452352 -86.1875 42.125 C-81.81110047 41.82450778 -79.22802738 40.55388853 -75.9375 37.5625 C-71.27732796 31.7113951 -69.41918033 25.65678277 -68.5546875 18.30859375 C-68.41289062 17.15488281 -68.27109375 16.00117187 -68.125 14.8125 C-68.01542969 13.72453125 -67.90585938 12.6365625 -67.79296875 11.515625 C-66.70347143 7.75462055 -65.22093186 6.60235662 -61.9375 4.5625 C-58.68746466 4.35505094 -56.89434461 4.73922507 -54.3984375 6.88671875 C-51.52907458 10.04301797 -49.45659918 13.34607806 -47.5 17.125 C-44.60636362 22.49104721 -41.35917368 26.23468633 -35.58203125 28.4765625 C-30.36066623 29.82035567 -25.98467732 29.83291708 -20.96484375 27.77734375 C-13.81833223 23.49494475 -11.28753006 15.12924445 -8.4296875 7.734375 C-6.42272304 3.46826206 -4.73567963 0.90683227 0 0 Z M-133.70703125 94.484375 C-135.75532622 96.39276891 -137.85785597 98.19874726 -140 100 C-159.83794476 117.37310994 -175.28289302 142.75262665 -183.9375 167.5625 C-184.16679199 168.21524902 -184.39608398 168.86799805 -184.63232422 169.54052734 C-191.71059075 189.95843124 -194.16675301 210.05545036 -194.1875 231.625 C-194.18850708 232.35549561 -194.18951416 233.08599121 -194.19055176 233.83862305 C-194.18083345 244.28065524 -193.77136342 254.3831739 -191.39501953 264.58837891 C-190.91003516 266.68100624 -190.48256754 268.78093532 -190.05859375 270.88671875 C-188.02991066 280.59062227 -184.93099605 289.50262836 -180.9375 298.5625 C-180.19113281 300.2640625 -180.19113281 300.2640625 -179.4296875 302 C-176.25698337 309.04307096 -172.74144442 315.84148585 -168.9375 322.5625 C-168.51984375 323.30113281 -168.1021875 324.03976562 -167.671875 324.80078125 C-166.76652782 326.3915145 -165.85317007 327.97768641 -164.9375 329.5625 C-164.2775 329.5625 -163.6175 329.5625 -162.9375 329.5625 C-162.73125 330.408125 -162.525 331.25375 -162.3125 332.125 C-160.5784841 336.46003975 -158.06973569 339.16506357 -154.9375 342.5625 C-153.76748648 343.8928974 -152.60087591 345.22629441 -151.4375 346.5625 C-150.84839844 347.23152344 -150.25929687 347.90054687 -149.65234375 348.58984375 C-148.56620182 349.83927809 -147.49393709 351.10102938 -146.44140625 352.37890625 C-142.65922451 356.96057357 -138.47958638 360.74529668 -133.9375 364.5625 C-133.08542969 365.31402344 -132.23335937 366.06554687 -131.35546875 366.83984375 C-108.98503283 386.21123355 -82.5366114 398.56094597 -53.9375 405.5625 C-52.8252002 405.83586182 -52.8252002 405.83586182 -51.69042969 406.11474609 C-39.21966211 408.9801145 -26.47688286 408.87016122 -13.75 408.9375 C-12.8994101 408.9455365 -12.04882019 408.953573 -11.17245483 408.96185303 C0.57866017 409.04594833 11.56809608 407.98449329 23.0625 405.5625 C24.52157715 405.26902183 25.98080689 404.97630132 27.44018555 404.68432617 C55.86133296 398.90451572 84.26150293 383.67358009 105.0625 363.5625 C106.47106803 362.32406097 107.88711387 361.09404452 109.3125 359.875 C117.66279529 352.553731 124.38008327 344.39894633 131.0625 335.5625 C131.70445312 334.71558594 132.34640625 333.86867188 133.0078125 332.99609375 C141.38693942 321.47966583 147.86905738 308.79050385 153.0625 295.5625 C153.68898438 294.04269531 153.68898438 294.04269531 154.328125 292.4921875 C157.39985842 284.57955774 159.39053009 276.50709615 161.3125 268.25 C161.57095703 267.14043945 161.82941406 266.03087891 162.09570312 264.88769531 C169.36155337 232.63700803 165.63108519 198.58840506 155.0625 167.5625 C154.84932129 166.91442383 154.63614258 166.26634766 154.41650391 165.59863281 C142.45737374 129.8445323 113.39542077 97.5268389 82.0625 77.5625 C81.03253906 76.8921875 80.00257813 76.221875 78.94140625 75.53125 C14.38391431 34.44202624 -77.55455874 42.08761436 -133.70703125 94.484375 Z " fill="#040208" transform="translate(260.9375,26.4375)"/>
<path d="M0 0 C5.25928934 1.50840038 8.47862557 4.92334472 12.3125 8.625 C12.9832959 9.26526123 13.6540918 9.90552246 14.34521484 10.56518555 C15.66206761 11.82494377 16.97598775 13.08777635 18.28662109 14.35400391 C19.60734211 15.62278434 20.94969378 16.86907462 22.30078125 18.10546875 C42.64567475 37.14340977 60.58577514 66.2546751 61.92553711 94.37231445 C62.54966691 114.9210864 51.70139566 131.68134705 39 147 C38.16597656 148.00675781 37.33195312 149.01351562 36.47265625 150.05078125 C32.04965247 155.34658061 27.54341486 160.54274432 22.875 165.625 C18.84044773 170.02228015 15.02163751 174.54616887 11.28125 179.1953125 C9.72517355 181.10843388 8.14032408 182.99842108 6.53125 184.8671875 C-5.14729605 198.45611299 -15.882604 213.78309307 -18 232 C-19.32 232.33 -20.64 232.66 -22 233 C-22.51046875 232.11441406 -23.0209375 231.22882813 -23.546875 230.31640625 C-27.65002278 223.29095566 -31.94867565 216.4901978 -36.6875 209.875 C-87.98596231 138.1793706 -87.98596231 138.1793706 -83.31103516 104.35424805 C-81.65008117 94.44171807 -78.69396224 86.73221696 -71 80 C-70.29875 79.319375 -69.5975 78.63875 -68.875 77.9375 C-60.94620376 72.59418079 -52.43872812 70.83532404 -43 72 C-32.36404744 74.18734243 -22.76113942 79.52548596 -16.5 88.5625 C-9.90450141 99.62469071 -8.32805375 110.7340747 -11.3125 123.3125 C-12.46221547 127.46874843 -13.63417643 131.35268866 -16 135 C-16.99 135.33 -17.98 135.66 -19 136 C-19.03440186 135.43603516 -19.06880371 134.87207031 -19.10424805 134.29101562 C-19.27587029 131.69193648 -19.48145213 129.09656789 -19.6875 126.5 C-19.76774414 125.1696875 -19.76774414 125.1696875 -19.84960938 123.8125 C-20.4695895 116.48056112 -22.7863702 111.43525944 -27.8125 106.0625 C-32.76466339 103.6571635 -36.67559975 103.60919337 -41.8125 105.125 C-47.07850223 108.22264837 -48.33433096 112.32438699 -50 118 C-52.12033785 137.69941794 -43.55562064 158.44261372 -31.76171875 173.94140625 C-27.67176545 178.94728547 -27.67176545 178.94728547 -22.16015625 182.08203125 C-17.58518683 181.96327432 -15.2825307 180.05743225 -12 177 C-9.79858643 174.64436938 -7.85636976 172.15149484 -5.9375 169.5625 C-5.38876221 168.83095703 -4.84002441 168.09941406 -4.2746582 167.34570312 C16.23355669 139.54934913 31.10309727 112.0796566 26.12915039 76.71850586 C22.50448721 53.71718218 14.27218735 32.90607212 3.86132812 12.17431641 C3.36052734 11.16675293 2.85972656 10.15918945 2.34375 9.12109375 C1.89193359 8.2283374 1.44011719 7.33558105 0.97460938 6.41577148 C0 4 0 4 0 0 Z " fill="#020207" transform="translate(262,125)"/>
<path d="M0 0 C0 4 0 4 -1.28637695 5.85595703 C-7.39721727 11.60278425 -13.00879951 12.32005048 -21.1875 12.875 C-22.42330811 12.98320068 -23.65911621 13.09140137 -24.93237305 13.20288086 C-33.14892223 13.89144223 -41.39175088 14.40942546 -49.63549805 14.62255859 C-54.3393312 14.7639594 -58.88926394 15.24311311 -63.546875 15.92578125 C-73.53302721 17.31586166 -83.56682725 17.84879987 -93.62719727 18.43261719 C-96.95563497 18.62605394 -100.28347614 18.82800748 -103.61132812 19.03125 C-105.74997049 19.15934788 -107.88864146 19.28696908 -110.02734375 19.4140625 C-111.01081284 19.47340973 -111.99428192 19.53275696 -113.0075531 19.59390259 C-118.34944616 19.90115906 -123.6493077 20.05912367 -129 20 C-130 18 -130 18 -129.25 14.5 C-128 11 -128 11 -125 9 C-122.53395081 8.62109375 -122.53395081 8.62109375 -119.56079102 8.4375 C-118.44434708 8.36402344 -117.32790314 8.29054688 -116.17762756 8.21484375 C-114.35913551 8.10849609 -114.35913551 8.10849609 -112.50390625 8 C-110.61707375 7.87818359 -110.61707375 7.87818359 -108.69212341 7.75390625 C-105.33161771 7.53799599 -101.97083068 7.32943577 -98.60961914 7.125 C-92.65699294 6.7615242 -86.70539872 6.38152894 -80.75390625 6 C-79.47166672 5.91817978 -78.18942719 5.83635956 -76.86833191 5.75205994 C-67.98277328 5.16991683 -59.13813854 4.38309802 -50.28442383 3.44189453 C-44.0555092 2.78302111 -37.81154934 2.35507157 -31.5625 1.9375 C-29.27211097 1.7803037 -26.98174622 1.62275323 -24.69140625 1.46484375 C-23.59070801 1.38991699 -22.49000977 1.31499023 -21.35595703 1.23779297 C-16.8531334 0.9187365 -12.35414011 0.55560844 -7.85522461 0.18579102 C-5.22615407 0.01471597 -2.63354551 -0.03415479 0 0 Z " fill="#04010B" transform="translate(380,349)"/>
<path d="M0 0 C11.73319649 0.64060745 23.44641875 1.45576257 35.16119576 2.37153625 C38.0862694 2.6001883 41.01149115 2.82686104 43.93675232 3.05310059 C50.14547127 3.53365135 56.35399012 4.01675696 62.5625 4.5 C69.7733505 5.06091233 76.98428429 5.62073042 84.19535637 6.17878723 C87.04662349 6.39986993 89.89777295 6.62242471 92.74891663 6.84509277 C93.64308761 6.91436226 94.53725859 6.98363174 95.45852566 7.05500031 C97.19563045 7.18966697 98.93263217 7.32567115 100.66951847 7.46312714 C104.67107075 7.77368869 108.66663616 8.04403339 112.67672729 8.21557617 C113.407779 8.24972374 114.1388307 8.28387131 114.89203548 8.31905365 C116.84270956 8.4054962 118.79408966 8.47558241 120.74546814 8.54431152 C124.23716314 9.03320678 126.20170634 9.88626258 129 12 C129.94230308 14.72278735 129.85651142 17.08239887 130 20 C125.49979316 19.86015544 120.99989394 19.71205005 116.5 19.5625 C115.2315625 19.52318359 113.963125 19.48386719 112.65625 19.44335938 C102.06230913 19.08471034 102.06230913 19.08471034 97.734375 18.48828125 C93.06949114 17.87833305 88.4484924 17.76634511 83.75 17.625 C73.46344426 17.2548287 63.30765874 16.25580781 53.08422852 15.08862305 C46.45106591 14.34046668 39.85602691 13.73369931 33.1875 13.4375 C27.68690692 13.1785077 22.22151872 12.82161417 16.75 12.1875 C15.00976562 11.99220703 15.00976562 11.99220703 13.234375 11.79296875 C7.15679823 10.30293483 3.2074437 6.45494039 -1 2 C-0.67 1.34 -0.34 0.68 0 0 Z " fill="#05010C" transform="translate(100,349)"/>
<path d="M0 0 C0.76156403 0.06491638 1.52312805 0.12983276 2.30776978 0.19671631 C4.83522104 0.41374591 7.3617834 0.63975086 9.88842773 0.8659668 C11.65701667 1.02002995 13.42564845 1.17360197 15.19432068 1.32670593 C18.91456032 1.65003191 22.63440759 1.97746198 26.35400391 2.30810547 C31.06996086 2.7272614 35.78650043 3.13931291 40.50332737 3.54855061 C44.16632202 3.86668557 47.8290974 4.18728694 51.49180412 4.50871849 C53.22690295 4.66097806 54.96203596 4.81284865 56.6972065 4.96428871 C62.30348057 5.45511992 67.90721291 5.96854075 73.50952148 6.50268555 C74.7741881 6.62101053 74.7741881 6.62101053 76.06440353 6.74172592 C78.5757873 6.98036749 81.08551951 7.23206525 83.59521484 7.48779297 C84.36238862 7.5596069 85.1295624 7.63142084 85.91998386 7.70541096 C91.2798879 8.27305196 91.2798879 8.27305196 93.50952148 10.50268555 C94.07472151 13.15805927 94.24740346 15.79413268 94.50952148 18.50268555 C90.73494253 19.76087853 87.65238119 19.18895595 83.79467773 18.69018555 C73.56875541 17.46206449 63.32517104 16.59301307 53.0607605 15.75708008 C49.88717685 15.4977962 46.71407108 15.23319363 43.54101562 14.9675293 C34.72142791 14.23253202 25.90426378 13.50601488 17.07202148 12.94018555 C15.91774658 12.8628418 14.76347168 12.78549805 13.57421875 12.70581055 C11.57563822 12.57599409 9.57607813 12.46003072 7.57568359 12.36206055 C0.65921845 11.90507402 -3.5746258 9.96994554 -8.92797852 5.44018555 C-10.49047852 3.50268555 -10.49047852 3.50268555 -10.49047852 0.50268555 C-6.82844769 -0.71799139 -3.76850014 -0.34576086 0 0 Z " fill="#04010A" transform="translate(138.490478515625,363.497314453125)"/>
<path d="M0 0 C0 3 0 3 -1.568573 4.9884491 C-7.65619881 10.75284369 -12.10990409 12.25162789 -20.3828125 12.55078125 C-21.46370148 12.62017914 -22.54459045 12.68957703 -23.65823364 12.76107788 C-27.14609633 12.9782907 -30.63441749 13.14530599 -34.125 13.3125 C-36.52465954 13.45465538 -38.92407951 13.60091265 -41.32324219 13.7512207 C-46.053079 14.04623331 -50.78340458 14.32719905 -55.51464844 14.59863281 C-63.78182708 15.08994046 -72.01254251 15.84227511 -80.25 16.6875 C-82.0446167 16.86696167 -82.0446167 16.86696167 -83.87548828 17.05004883 C-89.79739517 17.64799545 -89.79739517 17.64799545 -95.70898438 18.33837891 C-101.807161 19.0964195 -101.807161 19.0964195 -104 18 C-103.67 15.03 -103.34 12.06 -103 9 C-97.51516446 7.22997133 -92.32348951 6.49182913 -86.58984375 6.03515625 C-85.22671303 5.91825691 -85.22671303 5.91825691 -83.83604431 5.79899597 C-80.87040173 5.54654439 -77.90403488 5.30422162 -74.9375 5.0625 C-72.87707811 4.89009927 -70.81669431 4.71724285 -68.75634766 4.54394531 C-63.5162828 4.10523153 -58.2755014 3.6757698 -53.03448486 3.24859619 C-49.21986561 2.93608851 -45.40587229 2.61634292 -41.59187317 2.29637146 C-38.1592375 2.00950571 -34.72620706 1.72765194 -31.29299927 1.44772339 C-29.70229308 1.31764898 -28.11169242 1.1862764 -26.52120972 1.05349731 C-17.66890238 0.31819698 -8.89142396 -0.19231631 0 0 Z " fill="#03010A" transform="translate(352,364)"/>
<path d="M0 0 C6.4113493 0.02985954 12.72433018 0.34445087 19.10644531 0.9387207 C27.08563854 1.65400143 35.06442405 2.29418445 43.05566406 2.85668945 C45.74030806 3.04929778 48.4249054 3.2425464 51.10949707 3.43588257 C52.90004187 3.56283937 54.69081944 3.68655472 56.48181152 3.80703735 C59.01232788 3.97778772 61.54176297 4.16020579 64.07128906 4.3449707 C64.84309006 4.3939299 65.61489105 4.4428891 66.41007996 4.49333191 C68.2324938 4.63186138 70.04694878 4.8691119 71.85644531 5.1262207 C73.0591735 7.53167708 72.95716003 9.07619023 72.91894531 11.7512207 C72.90992188 12.56848633 72.90089844 13.38575195 72.89160156 14.2277832 C72.88 14.85426758 72.86839844 15.48075195 72.85644531 16.1262207 C72.27491699 16.07087158 71.69338867 16.01552246 71.09423828 15.95849609 C60.27038392 14.94091401 49.47177984 14.03898854 38.60644531 13.6262207 C31.47797401 13.34458944 24.39276067 12.90549429 17.29394531 12.1887207 C16.51438477 12.11395508 15.73482422 12.03918945 14.93164062 11.9621582 C7.48719449 11.15735322 3.23125422 9.13456536 -2.14355469 4.1262207 C-2.47355469 3.1362207 -2.80355469 2.1462207 -3.14355469 1.1262207 C-2.14355469 0.1262207 -2.14355469 0.1262207 0 0 Z " fill="#04020B" transform="translate(161.1435546875,378.873779296875)"/>
<path d="M0 0 C-0.94195038 4.18920039 -2.32883736 5.96647522 -5.65234375 8.67578125 C-10.36428728 11.33359965 -15.69841365 11.51909107 -21 12 C-22.13139404 12.12266235 -22.13139404 12.12266235 -23.28564453 12.24780273 C-29.27405043 12.89147129 -35.23273534 13.22177008 -41.25 13.4375 C-52.54045234 13.88962588 -63.75927508 14.87132739 -75 16 C-75.84676067 12.26798075 -75.95929637 9.73059699 -75 6 C-70.47377619 5.17995577 -65.96418375 4.68083543 -61.3828125 4.31640625 C-60.6566423 4.25656555 -59.93047211 4.19672485 -59.18229675 4.1350708 C-56.83005646 3.9417767 -54.47754745 3.75201599 -52.125 3.5625 C-50.50022729 3.43013833 -48.87547151 3.29756864 -47.25073242 3.16479492 C-44.80931711 2.96530646 -42.36788883 2.76599922 -39.92637634 2.56770325 C-35.15142902 2.17923843 -30.37798755 1.77686237 -25.60546875 1.359375 C-24.52700684 1.2658374 -23.44854492 1.1722998 -22.33740234 1.07592773 C-20.39086331 0.90641074 -18.44455094 0.73425958 -16.49853516 0.55883789 C-10.97603385 0.08353645 -5.54336756 -0.07301295 0 0 Z " fill="#05020B" transform="translate(322,379)"/>
<path d="M0 0 C-2.49076635 3.73614952 -4.97321884 4.25815851 -9.0625 5.5 C-10.42453122 5.93082505 -11.78651057 6.36181414 -13.1484375 6.79296875 C-13.8094043 6.99841309 -14.47037109 7.20385742 -15.15136719 7.41552734 C-17.51527881 8.16291303 -19.84967511 8.9876153 -22.1875 9.8125 C-26 11 -26 11 -30 11 C-30 8.03 -30 5.06 -30 2 C-26.28549758 0.14274879 -21.9053503 0.26795791 -17.8125 -0.125 C-16.87857422 -0.22425781 -15.94464844 -0.32351563 -14.98242188 -0.42578125 C-9.75363095 -0.93357375 -5.16069028 -1.01357956 0 0 Z " fill="#0A0618" transform="translate(274,396)"/>
<path d="M0 0 C1.21429688 0.07476562 2.42859375 0.14953125 3.6796875 0.2265625 C5.41605469 0.35417969 5.41605469 0.35417969 7.1875 0.484375 C8.25355469 0.55881836 9.31960937 0.63326172 10.41796875 0.70996094 C13 1.25 13 1.25 15 4.25 C15.07905064 6.58199388 15.08798769 8.91832622 15 11.25 C8.91454693 10.63480392 3.50227593 8.91016195 -2.25 6.875 C-3.1471875 6.57078125 -4.044375 6.2665625 -4.96875 5.953125 C-5.82984375 5.65148437 -6.6909375 5.34984375 -7.578125 5.0390625 C-8.35575195 4.76787598 -9.13337891 4.49668945 -9.93457031 4.21728516 C-12.12780768 3.19014491 -13.40871427 2.05527746 -15 0.25 C-10.68874653 -1.90562673 -4.69278801 -0.34872098 0 0 Z " fill="#0A0615" transform="translate(222,395.75)"/>
<path d="" fill="#000000" transform="translate(0,0)"/>
<path d="" fill="#000000" transform="translate(0,0)"/>
<path d="" fill="#000000" transform="translate(0,0)"/>
<path d="" fill="#000000" transform="translate(0,0)"/>
<path d="" fill="#000000" transform="translate(0,0)"/>
<path d="" fill="#000000" transform="translate(0,0)"/>
<path d="" fill="#000000" transform="translate(0,0)"/>
<path d="" fill="#000000" transform="translate(0,0)"/>
<path d="" fill="#000000" transform="translate(0,0)"/>
<path d="" fill="#000000" transform="translate(0,0)"/>
<path d="" fill="#000000" transform="translate(0,0)"/>
<path d="" fill="#000000" transform="translate(0,0)"/>
<path d="" fill="#000000" transform="translate(0,0)"/>
<path d="" fill="#000000" transform="translate(0,0)"/>
<path d="" fill="#000000" transform="translate(0,0)"/>
<path d="" fill="#000000" transform="translate(0,0)"/>
<path d="" fill="#000000" transform="translate(0,0)"/>
<path d="" fill="#000000" transform="translate(0,0)"/>
<path d="" fill="#000000" transform="translate(0,0)"/>
<path d="" fill="#000000" transform="translate(0,0)"/>
<path d="" fill="#000000" transform="translate(0,0)"/>
<path d="" fill="#000000" transform="translate(0,0)"/>
<path d="" fill="#000000" transform="translate(0,0)"/>
<path d="" fill="#000000" transform="translate(0,0)"/>
<path d="" fill="#000000" transform="translate(0,0)"/>
<path d="" fill="#000000" transform="translate(0,0)"/>
<path d="" fill="#000000" transform="translate(0,0)"/>
<path d="" fill="#000000" transform="translate(0,0)"/>
<path d="" fill="#000000" transform="translate(0,0)"/>
<path d="" fill="#000000" transform="translate(0,0)"/>
<path d="" fill="#000000" transform="translate(0,0)"/>
<path d="" fill="#000000" transform="translate(0,0)"/>
<path d="" fill="#000000" transform="translate(0,0)"/>
<path d="" fill="#000000" transform="translate(0,0)"/>
<path d="" fill="#000000" transform="translate(0,0)"/>
<path d="" fill="#000000" transform="translate(0,0)"/>
<path d="" fill="#000000" transform="translate(0,0)"/>
<path d="" fill="#000000" transform="translate(0,0)"/>
<path d="" fill="#000000" transform="translate(0,0)"/>
<path d="" fill="#000000" transform="translate(0,0)"/>
<path d="" fill="#000000" transform="translate(0,0)"/>
<path d="" fill="#000000" transform="translate(0,0)"/>
<path d="" fill="#000000" transform="translate(0,0)"/>
<path d="" fill="#000000" transform="translate(0,0)"/>
<path d="" fill="#000000" transform="translate(0,0)"/>
<path d="" fill="#000000" transform="translate(0,0)"/>
<path d="" fill="#000000" transform="translate(0,0)"/>
<path d="" fill="#000000" transform="translate(0,0)"/>
<path d="" fill="#000000" transform="translate(0,0)"/>
<path d="" fill="#000000" transform="translate(0,0)"/>
<path d="" fill="#000000" transform="translate(0,0)"/>
<path d="" fill="#000000" transform="translate(0,0)"/>
<path d="" fill="#000000" transform="translate(0,0)"/>
<path d="" fill="#000000" transform="translate(0,0)"/>
<path d="" fill="#000000" transform="translate(0,0)"/>
<path d="" fill="#000000" transform="translate(0,0)"/>
<path d="" fill="#000000" transform="translate(0,0)"/>
<path d="" fill="#000000" transform="translate(0,0)"/>
<path d="" fill="#000000" transform="translate(0,0)"/>
<path d="" fill="#000000" transform="translate(0,0)"/>
<path d="" fill="#000000" transform="translate(0,0)"/>
<path d="" fill="#000000" transform="translate(0,0)"/>
<path d="" fill="#000000" transform="translate(0,0)"/>
<path d="" fill="#000000" transform="translate(0,0)"/>
<path d="" fill="#000000" transform="translate(0,0)"/>
<path d="" fill="#000000" transform="translate(0,0)"/>
<path d="" fill="#000000" transform="translate(0,0)"/>
<path d="" fill="#000000" transform="translate(0,0)"/>
<path d="" fill="#000000" transform="translate(0,0)"/>
<path d="" fill="#000000" transform="translate(0,0)"/>
<path d="" fill="#000000" transform="translate(0,0)"/>
</svg>
